<?xml version="1.0" encoding="UTF-8" standalone="no"?>
<!DOCTYPE svg PUBLIC "-//W3C//DTD SVG 1.1//EN"
 "http://www.w3.org/Graphics/SVG/1.1/DTD/svg11.dtd">
<!-- Generated by graphviz version 2.43.0 (0)
 -->
<!-- Title: %3 Pages: 1 -->
<svg width="1886pt" height="95pt"
 viewBox="0.00 0.00 1886.00 94.53" xmlns="http://www.w3.org/2000/svg" xmlns:xlink="http://www.w3.org/1999/xlink">
<g id="graph0" class="graph" transform="scale(1 1) rotate(0) translate(4 90.53)">
<title>%3</title>
<polygon fill="white" stroke="transparent" points="-4,4 -4,-90.53 1882,-90.53 1882,4 -4,4"/>
<!-- &#45;1 -->
<g id="node1" class="node">
<title>&#45;1</title>
<polygon fill="lightgray" stroke="black" points="26,-86.53 0,-86.53 0,-68.53 26,-68.53 26,-86.53"/>
<text text-anchor="middle" x="13" y="-75.33" font-family="Times,serif" font-size="9.00">&#45;1</text>
</g>
<!-- 0 -->
<g id="node40" class="node">
<title>0</title>
<ellipse fill="lightblue" stroke="black" cx="912" cy="-16.26" rx="16.03" ry="16.03"/>
<text text-anchor="middle" x="912" y="-14.06" font-family="Times,serif" font-size="9.00">0</text>
</g>
<!-- &#45;1&#45;&gt;0 -->
<g id="edge1" class="edge">
<title>&#45;1&#45;&gt;0</title>
<path fill="none" stroke="green" stroke-width="0.14" d="M26.32,-70.99C29.14,-70.01 32.13,-69.12 35,-68.53 203.72,-33.7 757.64,-20.42 885.5,-17.78"/>
<polygon fill="green" stroke="green" stroke-width="0.14" points="885.65,-21.28 895.58,-17.57 885.51,-14.28 885.65,-21.28"/>
</g>
<!-- &#45;2 -->
<g id="node2" class="node">
<title>&#45;2</title>
<polygon fill="lightgray" stroke="black" points="70,-86.53 44,-86.53 44,-68.53 70,-68.53 70,-86.53"/>
<text text-anchor="middle" x="57" y="-75.33" font-family="Times,serif" font-size="9.00">&#45;2</text>
</g>
<!-- &#45;2&#45;&gt;0 -->
<g id="edge2" class="edge">
<title>&#45;2&#45;&gt;0</title>
<path fill="none" stroke="green" stroke-width="0.75" d="M70.32,-70.99C73.14,-70.02 76.14,-69.12 79,-68.53 238.73,-35.3 762.07,-20.86 885.67,-17.87"/>
<polygon fill="green" stroke="green" stroke-width="0.75" points="885.83,-21.37 895.75,-17.63 885.67,-14.37 885.83,-21.37"/>
</g>
<!-- &#45;3 -->
<g id="node3" class="node">
<title>&#45;3</title>
<polygon fill="lightgray" stroke="black" points="114,-86.53 88,-86.53 88,-68.53 114,-68.53 114,-86.53"/>
<text text-anchor="middle" x="101" y="-75.33" font-family="Times,serif" font-size="9.00">&#45;3</text>
</g>
<!-- &#45;3&#45;&gt;0 -->
<g id="edge3" class="edge">
<title>&#45;3&#45;&gt;0</title>
<path fill="none" stroke="green" stroke-width="0.32" d="M114.32,-71C117.14,-70.02 120.14,-69.13 123,-68.53 273.63,-36.92 765.79,-21.35 885.55,-17.97"/>
<polygon fill="green" stroke="green" stroke-width="0.32" points="885.76,-21.47 895.66,-17.69 885.56,-14.47 885.76,-21.47"/>
</g>
<!-- &#45;4 -->
<g id="node4" class="node">
<title>&#45;4</title>
<polygon fill="lightgray" stroke="black" points="158,-86.53 132,-86.53 132,-68.53 158,-68.53 158,-86.53"/>
<text text-anchor="middle" x="145" y="-75.33" font-family="Times,serif" font-size="9.00">&#45;4</text>
</g>
<!-- &#45;4&#45;&gt;0 -->
<g id="edge4" class="edge">
<title>&#45;4&#45;&gt;0</title>
<path fill="none" stroke="red" stroke-width="0.28" d="M158.32,-71.01C161.14,-70.03 164.14,-69.13 167,-68.53 308.61,-38.53 769.99,-21.86 885.57,-18.09"/>
<polygon fill="red" stroke="red" stroke-width="0.28" points="885.77,-21.59 895.65,-17.77 885.54,-14.59 885.77,-21.59"/>
</g>
<!-- &#45;5 -->
<g id="node5" class="node">
<title>&#45;5</title>
<polygon fill="lightgray" stroke="black" points="202,-86.53 176,-86.53 176,-68.53 202,-68.53 202,-86.53"/>
<text text-anchor="middle" x="189" y="-75.33" font-family="Times,serif" font-size="9.00">&#45;5</text>
</g>
<!-- &#45;5&#45;&gt;0 -->
<g id="edge5" class="edge">
<title>&#45;5&#45;&gt;0</title>
<path fill="none" stroke="red" stroke-width="0.25" d="M202.32,-71.02C205.15,-70.04 208.14,-69.14 211,-68.53 343.65,-40.13 774.68,-22.39 885.72,-18.22"/>
<polygon fill="red" stroke="red" stroke-width="0.25" points="885.86,-21.71 895.72,-17.84 885.6,-14.72 885.86,-21.71"/>
</g>
<!-- &#45;6 -->
<g id="node6" class="node">
<title>&#45;6</title>
<polygon fill="lightgray" stroke="black" points="246,-86.53 220,-86.53 220,-68.53 246,-68.53 246,-86.53"/>
<text text-anchor="middle" x="233" y="-75.33" font-family="Times,serif" font-size="9.00">&#45;6</text>
</g>
<!-- &#45;6&#45;&gt;0 -->
<g id="edge6" class="edge">
<title>&#45;6&#45;&gt;0</title>
<path fill="none" stroke="green" stroke-width="0.42" d="M246.33,-71.03C249.15,-70.05 252.14,-69.15 255,-68.53 495.44,-16.44 795.5,-15.69 885.38,-16.78"/>
<polygon fill="green" stroke="green" stroke-width="0.42" points="885.46,-20.28 895.51,-16.92 885.56,-13.28 885.46,-20.28"/>
</g>
<!-- &#45;7 -->
<g id="node7" class="node">
<title>&#45;7</title>
<polygon fill="lightgray" stroke="black" points="290,-86.53 264,-86.53 264,-68.53 290,-68.53 290,-86.53"/>
<text text-anchor="middle" x="277" y="-75.33" font-family="Times,serif" font-size="9.00">&#45;7</text>
</g>
<!-- &#45;7&#45;&gt;0 -->
<g id="edge7" class="edge">
<title>&#45;7&#45;&gt;0</title>
<path fill="none" stroke="red" stroke-width="0.32" d="M290.33,-71.04C293.15,-70.06 296.14,-69.15 299,-68.53 521.85,-19.61 799.66,-16.63 885.5,-16.99"/>
<polygon fill="red" stroke="red" stroke-width="0.32" points="885.64,-20.49 895.66,-17.05 885.69,-13.49 885.64,-20.49"/>
</g>
<!-- &#45;8 -->
<g id="node8" class="node">
<title>&#45;8</title>
<polygon fill="lightgray" stroke="black" points="334,-86.53 308,-86.53 308,-68.53 334,-68.53 334,-86.53"/>
<text text-anchor="middle" x="321" y="-75.33" font-family="Times,serif" font-size="9.00">&#45;8</text>
</g>
<!-- &#45;8&#45;&gt;0 -->
<g id="edge8" class="edge">
<title>&#45;8&#45;&gt;0</title>
<path fill="none" stroke="red" stroke-width="0.1" d="M334.33,-71.06C337.15,-70.07 340.14,-69.16 343,-68.53 548.01,-22.83 803.2,-17.66 885.27,-17.23"/>
<polygon fill="red" stroke="red" stroke-width="0.1" points="885.48,-20.73 895.47,-17.2 885.46,-13.73 885.48,-20.73"/>
</g>
<!-- &#45;9 -->
<g id="node9" class="node">
<title>&#45;9</title>
<polygon fill="lightgray" stroke="black" points="378,-86.53 352,-86.53 352,-68.53 378,-68.53 378,-86.53"/>
<text text-anchor="middle" x="365" y="-75.33" font-family="Times,serif" font-size="9.00">&#45;9</text>
</g>
<!-- &#45;9&#45;&gt;0 -->
<g id="edge9" class="edge">
<title>&#45;9&#45;&gt;0</title>
<path fill="none" stroke="red" stroke-width="0.16" d="M378.34,-71.07C381.16,-70.09 384.15,-69.17 387,-68.53 574.27,-26.05 806.99,-18.76 885.06,-17.52"/>
<polygon fill="red" stroke="red" stroke-width="0.16" points="885.48,-21.01 895.43,-17.38 885.38,-14.01 885.48,-21.01"/>
</g>
<!-- &#45;10 -->
<g id="node10" class="node">
<title>&#45;10</title>
<polygon fill="lightgray" stroke="black" points="428,-86.53 396,-86.53 396,-68.53 428,-68.53 428,-86.53"/>
<text text-anchor="middle" x="412" y="-75.33" font-family="Times,serif" font-size="9.00">&#45;10</text>
</g>
<!-- &#45;10&#45;&gt;0 -->
<g id="edge10" class="edge">
<title>&#45;10&#45;&gt;0</title>
<path fill="none" stroke="red" stroke-width="0.39" d="M428.01,-70.88C430.97,-69.98 434.06,-69.15 437,-68.53 605.26,-32.91 812.58,-21.36 885.29,-18.25"/>
<polygon fill="red" stroke="red" stroke-width="0.39" points="885.55,-21.75 895.4,-17.84 885.27,-14.75 885.55,-21.75"/>
</g>
<!-- &#45;11 -->
<g id="node11" class="node">
<title>&#45;11</title>
<polygon fill="lightgray" stroke="black" points="478,-86.53 446,-86.53 446,-68.53 478,-68.53 478,-86.53"/>
<text text-anchor="middle" x="462" y="-75.33" font-family="Times,serif" font-size="9.00">&#45;11</text>
</g>
<!-- &#45;11&#45;&gt;0 -->
<g id="edge11" class="edge">
<title>&#45;11&#45;&gt;0</title>
<path fill="none" stroke="green" stroke-width="0.5" d="M478.02,-70.91C480.98,-70.01 484.06,-69.17 487,-68.53 635.57,-36.1 818.14,-22.76 885.46,-18.71"/>
<polygon fill="green" stroke="green" stroke-width="0.5" points="885.82,-22.2 895.6,-18.12 885.41,-15.21 885.82,-22.2"/>
</g>
<!-- &#45;12 -->
<g id="node12" class="node">
<title>&#45;12</title>
<polygon fill="lightgray" stroke="black" points="528,-86.53 496,-86.53 496,-68.53 528,-68.53 528,-86.53"/>
<text text-anchor="middle" x="512" y="-75.33" font-family="Times,serif" font-size="9.00">&#45;12</text>
</g>
<!-- &#45;12&#45;&gt;0 -->
<g id="edge12" class="edge">
<title>&#45;12&#45;&gt;0</title>
<path fill="none" stroke="red" stroke-width="0.2" d="M528.02,-70.95C530.98,-70.05 534.07,-69.19 537,-68.53 666.07,-39.29 824.16,-24.33 885.72,-19.27"/>
<polygon fill="red" stroke="red" stroke-width="0.2" points="886.05,-22.76 895.74,-18.47 885.49,-15.78 886.05,-22.76"/>
</g>
<!-- &#45;13 -->
<g id="node13" class="node">
<title>&#45;13</title>
<polygon fill="lightgray" stroke="black" points="578,-86.53 546,-86.53 546,-68.53 578,-68.53 578,-86.53"/>
<text text-anchor="middle" x="562" y="-75.33" font-family="Times,serif" font-size="9.00">&#45;13</text>
</g>
<!-- &#45;13&#45;&gt;0 -->
<g id="edge13" class="edge">
<title>&#45;13&#45;&gt;0</title>
<path fill="none" stroke="green" stroke-width="0.2" d="M578.04,-71C580.99,-70.09 584.07,-69.22 587,-68.53 696.68,-42.49 830.39,-26.13 885.91,-20"/>
<polygon fill="green" stroke="green" stroke-width="0.2" points="886.37,-23.47 895.94,-18.91 885.62,-16.51 886.37,-23.47"/>
</g>
<!-- &#45;14 -->
<g id="node14" class="node">
<title>&#45;14</title>
<polygon fill="lightgray" stroke="black" points="628,-86.53 596,-86.53 596,-68.53 628,-68.53 628,-86.53"/>
<text text-anchor="middle" x="612" y="-75.33" font-family="Times,serif" font-size="9.00">&#45;14</text>
</g>
<!-- &#45;14&#45;&gt;0 -->
<g id="edge14" class="edge">
<title>&#45;14&#45;&gt;0</title>
<path fill="none" stroke="red" stroke-width="0.3" d="M628.05,-71.06C631.01,-70.15 634.08,-69.26 637,-68.53 727.41,-45.73 836.87,-28.3 885.97,-21"/>
<polygon fill="red" stroke="red" stroke-width="0.3" points="886.65,-24.44 896.04,-19.52 885.64,-17.51 886.65,-24.44"/>
</g>
<!-- &#45;15 -->
<g id="node15" class="node">
<title>&#45;15</title>
<polygon fill="lightgray" stroke="black" points="678,-86.53 646,-86.53 646,-68.53 678,-68.53 678,-86.53"/>
<text text-anchor="middle" x="662" y="-75.33" font-family="Times,serif" font-size="9.00">&#45;15</text>
</g>
<!-- &#45;15&#45;&gt;0 -->
<g id="edge15" class="edge">
<title>&#45;15&#45;&gt;0</title>
<path fill="none" stroke="green" stroke-width="0.51" d="M678.08,-71.16C681.03,-70.24 684.1,-69.32 687,-68.53 758.46,-48.99 844.07,-30.93 886.11,-22.41"/>
<polygon fill="green" stroke="green" stroke-width="0.51" points="886.95,-25.81 896.06,-20.4 885.57,-18.95 886.95,-25.81"/>
</g>
<!-- &#45;16 -->
<g id="node16" class="node">
<title>&#45;16</title>
<polygon fill="lightgray" stroke="black" points="728,-86.53 696,-86.53 696,-68.53 728,-68.53 728,-86.53"/>
<text text-anchor="middle" x="712" y="-75.33" font-family="Times,serif" font-size="9.00">&#45;16</text>
</g>
<!-- &#45;16&#45;&gt;0 -->
<g id="edge16" class="edge">
<title>&#45;16&#45;&gt;0</title>
<path fill="none" stroke="green" stroke-width="0.38" d="M728.12,-71.3C731.07,-70.37 734.12,-69.41 737,-68.53 789.99,-52.29 852.34,-34.29 886.47,-24.53"/>
<polygon fill="green" stroke="green" stroke-width="0.38" points="887.86,-27.77 896.51,-21.66 885.93,-21.04 887.86,-27.77"/>
</g>
<!-- &#45;17 -->
<g id="node17" class="node">
<title>&#45;17</title>
<polygon fill="lightgray" stroke="black" points="778,-86.53 746,-86.53 746,-68.53 778,-68.53 778,-86.53"/>
<text text-anchor="middle" x="762" y="-75.33" font-family="Times,serif" font-size="9.00">&#45;17</text>
</g>
<!-- &#45;17&#45;&gt;0 -->
<g id="edge17" class="edge">
<title>&#45;17&#45;&gt;0</title>
<path fill="none" stroke="green" stroke-width="0.16" d="M778.05,-70.18C804.26,-59.83 856.42,-39.22 887.35,-27"/>
<polygon fill="green" stroke="green" stroke-width="0.16" points="888.94,-30.14 896.96,-23.21 886.37,-23.63 888.94,-30.14"/>
</g>
<!-- &#45;18 -->
<g id="node18" class="node">
<title>&#45;18</title>
<polygon fill="lightgray" stroke="black" points="828,-86.53 796,-86.53 796,-68.53 828,-68.53 828,-86.53"/>
<text text-anchor="middle" x="812" y="-75.33" font-family="Times,serif" font-size="9.00">&#45;18</text>
</g>
<!-- &#45;18&#45;&gt;0 -->
<g id="edge18" class="edge">
<title>&#45;18&#45;&gt;0</title>
<path fill="none" stroke="green" stroke-width="0.27" d="M825.9,-68.29C842.32,-58.56 869.86,-42.24 889.37,-30.68"/>
<polygon fill="green" stroke="green" stroke-width="0.27" points="891.4,-33.54 898.21,-25.43 887.83,-27.52 891.4,-33.54"/>
</g>
<!-- &#45;19 -->
<g id="node19" class="node">
<title>&#45;19</title>
<polygon fill="lightgray" stroke="black" points="878,-86.53 846,-86.53 846,-68.53 878,-68.53 878,-86.53"/>
<text text-anchor="middle" x="862" y="-75.33" font-family="Times,serif" font-size="9.00">&#45;19</text>
</g>
<!-- &#45;19&#45;&gt;0 -->
<g id="edge19" class="edge">
<title>&#45;19&#45;&gt;0</title>
<path fill="none" stroke="green" stroke-width="0.29" d="M868.95,-68.29C875.79,-60.18 886.5,-47.49 895.52,-36.79"/>
<polygon fill="green" stroke="green" stroke-width="0.29" points="898.23,-39.01 902,-29.11 892.88,-34.5 898.23,-39.01"/>
</g>
<!-- &#45;20 -->
<g id="node20" class="node">
<title>&#45;20</title>
<polygon fill="lightgray" stroke="black" points="928,-86.53 896,-86.53 896,-68.53 928,-68.53 928,-86.53"/>
<text text-anchor="middle" x="912" y="-75.33" font-family="Times,serif" font-size="9.00">&#45;20</text>
</g>
<!-- &#45;20&#45;&gt;0 -->
<g id="edge20" class="edge">
<title>&#45;20&#45;&gt;0</title>
<path fill="none" stroke="red" stroke-width="0.28" d="M912,-68.29C912,-61.7 912,-52.1 912,-43"/>
<polygon fill="red" stroke="red" stroke-width="0.28" points="915.5,-42.76 912,-32.76 908.5,-42.76 915.5,-42.76"/>
</g>
<!-- &#45;21 -->
<g id="node21" class="node">
<title>&#45;21</title>
<polygon fill="lightgray" stroke="black" points="978,-86.53 946,-86.53 946,-68.53 978,-68.53 978,-86.53"/>
<text text-anchor="middle" x="962" y="-75.33" font-family="Times,serif" font-size="9.00">&#45;21</text>
</g>
<!-- &#45;21&#45;&gt;0 -->
<g id="edge21" class="edge">
<title>&#45;21&#45;&gt;0</title>
<path fill="none" stroke="red" stroke-width="0.36" d="M955.05,-68.29C948.21,-60.18 937.5,-47.49 928.48,-36.79"/>
<polygon fill="red" stroke="red" stroke-width="0.36" points="931.12,-34.5 922,-29.11 925.77,-39.01 931.12,-34.5"/>
</g>
<!-- &#45;22 -->
<g id="node22" class="node">
<title>&#45;22</title>
<polygon fill="lightgray" stroke="black" points="1028,-86.53 996,-86.53 996,-68.53 1028,-68.53 1028,-86.53"/>
<text text-anchor="middle" x="1012" y="-75.33" font-family="Times,serif" font-size="9.00">&#45;22</text>
</g>
<!-- &#45;22&#45;&gt;0 -->
<g id="edge22" class="edge">
<title>&#45;22&#45;&gt;0</title>
<path fill="none" stroke="green" stroke-width="0.15" d="M998.1,-68.29C981.68,-58.56 954.14,-42.24 934.63,-30.68"/>
<polygon fill="green" stroke="green" stroke-width="0.15" points="936.17,-27.52 925.79,-25.43 932.6,-33.54 936.17,-27.52"/>
</g>
<!-- &#45;23 -->
<g id="node23" class="node">
<title>&#45;23</title>
<polygon fill="lightgray" stroke="black" points="1078,-86.53 1046,-86.53 1046,-68.53 1078,-68.53 1078,-86.53"/>
<text text-anchor="middle" x="1062" y="-75.33" font-family="Times,serif" font-size="9.00">&#45;23</text>
</g>
<!-- &#45;23&#45;&gt;0 -->
<g id="edge23" class="edge">
<title>&#45;23&#45;&gt;0</title>
<path fill="none" stroke="red" stroke-width="0.12" d="M1045.95,-70.18C1019.74,-59.83 967.58,-39.22 936.65,-27"/>
<polygon fill="red" stroke="red" stroke-width="0.12" points="937.63,-23.63 927.04,-23.21 935.06,-30.14 937.63,-23.63"/>
</g>
<!-- &#45;24 -->
<g id="node24" class="node">
<title>&#45;24</title>
<polygon fill="lightgray" stroke="black" points="1128,-86.53 1096,-86.53 1096,-68.53 1128,-68.53 1128,-86.53"/>
<text text-anchor="middle" x="1112" y="-75.33" font-family="Times,serif" font-size="9.00">&#45;24</text>
</g>
<!-- &#45;24&#45;&gt;0 -->
<g id="edge24" class="edge">
<title>&#45;24&#45;&gt;0</title>
<path fill="none" stroke="green" stroke-width="0.17" d="M1095.88,-71.3C1092.93,-70.37 1089.88,-69.41 1087,-68.53 1034.01,-52.29 971.66,-34.29 937.53,-24.53"/>
<polygon fill="green" stroke="green" stroke-width="0.17" points="938.07,-21.04 927.49,-21.66 936.14,-27.77 938.07,-21.04"/>
</g>
<!-- &#45;25 -->
<g id="node25" class="node">
<title>&#45;25</title>
<polygon fill="lightgray" stroke="black" points="1178,-86.53 1146,-86.53 1146,-68.53 1178,-68.53 1178,-86.53"/>
<text text-anchor="middle" x="1162" y="-75.33" font-family="Times,serif" font-size="9.00">&#45;25</text>
</g>
<!-- &#45;25&#45;&gt;0 -->
<g id="edge25" class="edge">
<title>&#45;25&#45;&gt;0</title>
<path fill="none" stroke="green" stroke-width="0.28" d="M1145.92,-71.16C1142.97,-70.24 1139.9,-69.32 1137,-68.53 1065.54,-48.99 979.93,-30.93 937.89,-22.41"/>
<polygon fill="green" stroke="green" stroke-width="0.28" points="938.43,-18.95 927.94,-20.4 937.05,-25.81 938.43,-18.95"/>
</g>
<!-- &#45;26 -->
<g id="node26" class="node">
<title>&#45;26</title>
<polygon fill="lightgray" stroke="black" points="1228,-86.53 1196,-86.53 1196,-68.53 1228,-68.53 1228,-86.53"/>
<text text-anchor="middle" x="1212" y="-75.33" font-family="Times,serif" font-size="9.00">&#45;26</text>
</g>
<!-- &#45;26&#45;&gt;0 -->
<g id="edge26" class="edge">
<title>&#45;26&#45;&gt;0</title>
<path fill="none" stroke="green" stroke-width="0.17" d="M1195.95,-71.06C1192.99,-70.15 1189.92,-69.26 1187,-68.53 1096.59,-45.73 987.13,-28.3 938.03,-21"/>
<polygon fill="green" stroke="green" stroke-width="0.17" points="938.36,-17.51 927.96,-19.52 937.35,-24.44 938.36,-17.51"/>
</g>
<!-- &#45;27 -->
<g id="node27" class="node">
<title>&#45;27</title>
<polygon fill="lightgray" stroke="black" points="1278,-86.53 1246,-86.53 1246,-68.53 1278,-68.53 1278,-86.53"/>
<text text-anchor="middle" x="1262" y="-75.33" font-family="Times,serif" font-size="9.00">&#45;27</text>
</g>
<!-- &#45;27&#45;&gt;0 -->
<g id="edge27" class="edge">
<title>&#45;27&#45;&gt;0</title>
<path fill="none" stroke="red" stroke-width="0.44" d="M1245.96,-71C1243.01,-70.09 1239.93,-69.22 1237,-68.53 1127.32,-42.49 993.61,-26.13 938.09,-20"/>
<polygon fill="red" stroke="red" stroke-width="0.44" points="938.38,-16.51 928.06,-18.91 937.63,-23.47 938.38,-16.51"/>
</g>
<!-- &#45;28 -->
<g id="node28" class="node">
<title>&#45;28</title>
<polygon fill="lightgray" stroke="black" points="1328,-86.53 1296,-86.53 1296,-68.53 1328,-68.53 1328,-86.53"/>
<text text-anchor="middle" x="1312" y="-75.33" font-family="Times,serif" font-size="9.00">&#45;28</text>
</g>
<!-- &#45;28&#45;&gt;0 -->
<g id="edge28" class="edge">
<title>&#45;28&#45;&gt;0</title>
<path fill="none" stroke="green" stroke-width="0.17" d="M1295.98,-70.95C1293.02,-70.05 1289.93,-69.19 1287,-68.53 1157.93,-39.29 999.84,-24.33 938.28,-19.27"/>
<polygon fill="green" stroke="green" stroke-width="0.17" points="938.51,-15.78 928.26,-18.47 937.95,-22.76 938.51,-15.78"/>
</g>
<!-- &#45;29 -->
<g id="node29" class="node">
<title>&#45;29</title>
<polygon fill="lightgray" stroke="black" points="1378,-86.53 1346,-86.53 1346,-68.53 1378,-68.53 1378,-86.53"/>
<text text-anchor="middle" x="1362" y="-75.33" font-family="Times,serif" font-size="9.00">&#45;29</text>
</g>
<!-- &#45;29&#45;&gt;0 -->
<g id="edge29" class="edge">
<title>&#45;29&#45;&gt;0</title>
<path fill="none" stroke="green" stroke-width="0.21" d="M1345.98,-70.91C1343.02,-70.01 1339.94,-69.17 1337,-68.53 1188.43,-36.1 1005.86,-22.76 938.54,-18.71"/>
<polygon fill="green" stroke="green" stroke-width="0.21" points="938.59,-15.21 928.4,-18.12 938.18,-22.2 938.59,-15.21"/>
</g>
<!-- &#45;30 -->
<g id="node30" class="node">
<title>&#45;30</title>
<polygon fill="lightgray" stroke="black" points="1428,-86.53 1396,-86.53 1396,-68.53 1428,-68.53 1428,-86.53"/>
<text text-anchor="middle" x="1412" y="-75.33" font-family="Times,serif" font-size="9.00">&#45;30</text>
</g>
<!-- &#45;30&#45;&gt;0 -->
<g id="edge30" class="edge">
<title>&#45;30&#45;&gt;0</title>
<path fill="none" stroke="green" stroke-width="0.15" d="M1395.99,-70.88C1393.03,-69.98 1389.94,-69.15 1387,-68.53 1218.74,-32.91 1011.42,-21.36 938.71,-18.25"/>
<polygon fill="green" stroke="green" stroke-width="0.15" points="938.73,-14.75 928.6,-17.84 938.45,-21.75 938.73,-14.75"/>
</g>
<!-- &#45;31 -->
<g id="node31" class="node">
<title>&#45;31</title>
<polygon fill="lightgray" stroke="black" points="1478,-86.53 1446,-86.53 1446,-68.53 1478,-68.53 1478,-86.53"/>
<text text-anchor="middle" x="1462" y="-75.33" font-family="Times,serif" font-size="9.00">&#45;31</text>
</g>
<!-- &#45;31&#45;&gt;0 -->
<g id="edge31" class="edge">
<title>&#45;31&#45;&gt;0</title>
<path fill="none" stroke="red" stroke-width="0.23" d="M1446,-70.85C1443.03,-69.96 1439.95,-69.13 1437,-68.53 1248.93,-29.71 1016.73,-20.09 938.86,-17.88"/>
<polygon fill="red" stroke="red" stroke-width="0.23" points="938.61,-14.37 928.52,-17.6 938.42,-21.37 938.61,-14.37"/>
</g>
<!-- &#45;32 -->
<g id="node32" class="node">
<title>&#45;32</title>
<polygon fill="lightgray" stroke="black" points="1528,-86.53 1496,-86.53 1496,-68.53 1528,-68.53 1528,-86.53"/>
<text text-anchor="middle" x="1512" y="-75.33" font-family="Times,serif" font-size="9.00">&#45;32</text>
</g>
<!-- &#45;32&#45;&gt;0 -->
<g id="edge32" class="edge">
<title>&#45;32&#45;&gt;0</title>
<path fill="none" stroke="red" stroke-width="0.18" d="M1495.73,-70.75C1492.85,-69.89 1489.86,-69.1 1487,-68.53 1278.75,-26.46 1021.12,-18.91 938.68,-17.56"/>
<polygon fill="red" stroke="red" stroke-width="0.18" points="938.71,-14.06 928.66,-17.41 938.61,-21.06 938.71,-14.06"/>
</g>
<!-- &#45;33 -->
<g id="node33" class="node">
<title>&#45;33</title>
<polygon fill="lightgray" stroke="black" points="1578,-86.53 1546,-86.53 1546,-68.53 1578,-68.53 1578,-86.53"/>
<text text-anchor="middle" x="1562" y="-75.33" font-family="Times,serif" font-size="9.00">&#45;33</text>
</g>
<!-- &#45;33&#45;&gt;0 -->
<g id="edge33" class="edge">
<title>&#45;33&#45;&gt;0</title>
<path fill="none" stroke="red" stroke-width="0.22" d="M1545.73,-70.73C1542.85,-69.88 1539.86,-69.09 1537,-68.53 1308.62,-23.24 1025.66,-17.84 938.67,-17.29"/>
<polygon fill="red" stroke="red" stroke-width="0.22" points="938.62,-13.79 928.61,-17.25 938.59,-20.79 938.62,-13.79"/>
</g>
<!-- &#45;34 -->
<g id="node34" class="node">
<title>&#45;34</title>
<polygon fill="lightgray" stroke="black" points="1628,-86.53 1596,-86.53 1596,-68.53 1628,-68.53 1628,-86.53"/>
<text text-anchor="middle" x="1612" y="-75.33" font-family="Times,serif" font-size="9.00">&#45;34</text>
</g>
<!-- &#45;34&#45;&gt;0 -->
<g id="edge34" class="edge">
<title>&#45;34&#45;&gt;0</title>
<path fill="none" stroke="red" stroke-width="0.45" d="M1595.74,-70.72C1592.86,-69.86 1589.86,-69.09 1587,-68.53 1338.41,-20.01 1030,-16.85 938.66,-17.06"/>
<polygon fill="red" stroke="red" stroke-width="0.45" points="938.37,-13.56 928.38,-17.11 938.4,-20.56 938.37,-13.56"/>
</g>
<!-- &#45;35 -->
<g id="node35" class="node">
<title>&#45;35</title>
<polygon fill="lightgray" stroke="black" points="1678,-86.53 1646,-86.53 1646,-68.53 1678,-68.53 1678,-86.53"/>
<text text-anchor="middle" x="1662" y="-75.33" font-family="Times,serif" font-size="9.00">&#45;35</text>
</g>
<!-- &#45;35&#45;&gt;0 -->
<g id="edge35" class="edge">
<title>&#45;35&#45;&gt;0</title>
<path fill="none" stroke="green" stroke-width="0.29" d="M1645.74,-70.71C1642.86,-69.85 1639.86,-69.08 1637,-68.53 1367.93,-16.74 1033.68,-15.92 938.43,-16.87"/>
<polygon fill="green" stroke="green" stroke-width="0.29" points="938.22,-13.37 928.26,-16.99 938.3,-20.37 938.22,-13.37"/>
</g>
<!-- &#45;36 -->
<g id="node36" class="node">
<title>&#45;36</title>
<polygon fill="lightgray" stroke="black" points="1728,-86.53 1696,-86.53 1696,-68.53 1728,-68.53 1728,-86.53"/>
<text text-anchor="middle" x="1712" y="-75.33" font-family="Times,serif" font-size="9.00">&#45;36</text>
</g>
<!-- &#45;36&#45;&gt;0 -->
<g id="edge36" class="edge">
<title>&#45;36&#45;&gt;0</title>
<path fill="none" stroke="red" stroke-width="0.29" d="M1695.74,-70.7C1692.86,-69.84 1689.87,-69.07 1687,-68.53 1538.78,-40.35 1057.49,-22.26 938.69,-18.16"/>
<polygon fill="red" stroke="red" stroke-width="0.29" points="938.47,-14.65 928.35,-17.8 938.23,-21.64 938.47,-14.65"/>
</g>
<!-- &#45;37 -->
<g id="node37" class="node">
<title>&#45;37</title>
<polygon fill="lightgray" stroke="black" points="1778,-86.53 1746,-86.53 1746,-68.53 1778,-68.53 1778,-86.53"/>
<text text-anchor="middle" x="1762" y="-75.33" font-family="Times,serif" font-size="9.00">&#45;37</text>
</g>
<!-- &#45;37&#45;&gt;0 -->
<g id="edge37" class="edge">
<title>&#45;37&#45;&gt;0</title>
<path fill="none" stroke="red" stroke-width="0.16" d="M1745.74,-70.69C1742.86,-69.84 1739.87,-69.07 1737,-68.53 1578.37,-38.7 1061.46,-21.71 938.45,-18.03"/>
<polygon fill="red" stroke="red" stroke-width="0.16" points="938.51,-14.53 928.41,-17.73 938.3,-21.52 938.51,-14.53"/>
</g>
<!-- &#45;38 -->
<g id="node38" class="node">
<title>&#45;38</title>
<polygon fill="lightgray" stroke="black" points="1828,-86.53 1796,-86.53 1796,-68.53 1828,-68.53 1828,-86.53"/>
<text text-anchor="middle" x="1812" y="-75.33" font-family="Times,serif" font-size="9.00">&#45;38</text>
</g>
<!-- &#45;38&#45;&gt;0 -->
<g id="edge38" class="edge">
<title>&#45;38&#45;&gt;0</title>
<path fill="none" stroke="red" stroke-width="0.26" d="M1795.74,-70.68C1792.86,-69.83 1789.87,-69.06 1787,-68.53 1618.02,-37.06 1065.85,-21.21 938.41,-17.92"/>
<polygon fill="red" stroke="red" stroke-width="0.26" points="938.46,-14.42 928.37,-17.66 938.28,-21.42 938.46,-14.42"/>
</g>
<!-- &#45;39 -->
<g id="node39" class="node">
<title>&#45;39</title>
<polygon fill="lightgray" stroke="black" points="1878,-86.53 1846,-86.53 1846,-68.53 1878,-68.53 1878,-86.53"/>
<text text-anchor="middle" x="1862" y="-75.33" font-family="Times,serif" font-size="9.00">&#45;39</text>
</g>
<!-- &#45;39&#45;&gt;0 -->
<g id="edge39" class="edge">
<title>&#45;39&#45;&gt;0</title>
<path fill="none" stroke="green" stroke-width="0.34" d="M1845.75,-70.67C1842.86,-69.82 1839.87,-69.06 1837,-68.53 1657.76,-35.44 1070.87,-20.76 938.63,-17.83"/>
<polygon fill="green" stroke="green" stroke-width="0.34" points="938.32,-14.32 928.25,-17.6 938.17,-21.32 938.32,-14.32"/>
</g>
</g>
</svg>
